# xmcd
#
# Track frame offsets:
#	150
#	14914
#	34604
#	51739
#	70729
#	83911
#	100956
#	116648
#	129824
#	143654
#	161387
#	176895
#	188620
#
# Disc length: 2697 seconds
#
# Revision: 0
# Processed by: cddbd v1.5.2PL0 Copyright (c) Steve Scherf et al.
# Submitted via: EasyCDDAExtractor 12.0.0.1
#
DISCID=b10a870d
DTITLE=Various Artist - ΟΛΑ ΘΥΜΙΖΟΥΝ ΤΟΝ ΜΑΝΟ ΛΟΙΖΟ - ΣΤΑΘΜΟΣ - ΘΑΛΑΣΣΟΓΡΑΦΙΕ
DTITLE=Σ - ΝΑ 'ΧΑΜΕ ΤΙ ΝΑ ' ΧΑΜΕ
DYEAR=2009
DGENRE=GREEK
TTITLE0=ΓΙΩΡΓΟΣ ΝΤΑΛΑΡΑΣ - ΕΧΩ ΕΝΑΝ ΚΑΦΕΝΕ
TTITLE1=ΓΙΩΡΓΟΣ ΝΤΑΛΑΡΑΣ - ΜΑΝΑ ΔΕ ΦΥΤΕΨΑΜΕ
TTITLE2=ΜΑΝΟΣ ΛΟΙΖΟΣ - ΣΕΒΑΧ Ο ΘΑΛΑΣΣΙΝΟΣ
TTITLE3=ΜΑΡΙΖΑ ΚΩΧ - ΤΟ ΜΗΝΥΜΑ
TTITLE4=ΓΙΑΝΝΗΣ ΠΑΡΙΟΣ  - ΕΝΑ ΓΕΡΙΚΟ ΠΟΥΛΙ
TTITLE5=ΓΙΩΡΓΟΣ ΝΤΑΛΑΡΑΣ - ΗΛΙΕ ΜΟΥ ΣΕ ΠΑΡΑΚΑΛΩ
TTITLE6=ΓΙΩΡΓΟΣ ΝΤΑΛΑΡΑΣ - Ο ΛΙΟΝΤΑΣ
TTITLE7=ΓΙΑΝΝΗΣ ΚΑΛΑΤΖΗΣ - ΠΑΠΟΡΑΚΙ
TTITLE8=ΓΙΑΝΝΗΣ ΚΑΛΑΤΖΗΣ - Ο ΚΟΥΤΑΛΙΑΝΟΣ
TTITLE9=ΓΙΑΝΝΗΣ ΚΑΛΑΤΖΗΣ - ΤΟ ΠΑΛΙΟ ΡΟΛΟΙ
TTITLE10=ΛΙΤΣΑ ΔΙΑΜΑΝΤΗ - ΟΠΟΙΟΣ ΔΕΙ ΤΟ ΠΑΛΙΚΑΡΙ
TTITLE11=ΓΙΑΝΝΗΣ ΚΑΛΑΤΖΗΣ - ΔΕΛΦΙΝΑΚΙ
TTITLE12=ΓΙΑΝΝΗΣ ΚΑΛΑΤΖΗΣ - ΠΙΣΩ ΑΠ' ΤΗΝ ΠΟΡΤΑ
EXTD=
EXTT0=
EXTT1=
EXTT2=
EXTT3=
EXTT4=
EXTT5=
EXTT6=
EXTT7=
EXTT8=
EXTT9=
EXTT10=
EXTT11=
EXTT12=
PLAYORDER=
